<svg xmlns="http://www.w3.org/2000/svg" viewBox="0 0 200 200"><defs><path id="b" d="M100 6a94 94 0 0 1 81.406 47C175.157 98.177 146.141 99.919 109 84.412a18 18 0 0 0-18 0C123 60 136 34 100 6Z"/><path id="e" d="M100 6c36 28 23 54-9 78.412"/><radialGradient id="d"><stop offset=".2" stop-color="#120c06" stop-opacity=".42"/><stop offset=".52" stop-color="#caa475" stop-opacity="0"/><stop offset="1" stop-color="#110c06" stop-opacity=".24"/></radialGradient><linearGradient id="a" x1="17" x2="163" y1="11" y2="155" gradientUnits="userSpaceOnUse"><stop stop-color="#b68a4f"/><stop offset=".23" stop-color="#8b6338"/><stop offset=".55" stop-color="#684526"/><stop offset="1" stop-color="#342315"/></linearGradient><pattern id="c" width="17" height="13" patternUnits="userSpaceOnUse"><path stroke="#efc991" stroke-opacity=".18" d="M3 2h1m9 6h1m-7 3h1"/><path stroke="#140d07" stroke-opacity=".36" d="M4 3h1m9 6h1m-7 3h1"/><circle cx="10" cy="3" r=".6" fill="#1e160c" fill-opacity=".32"/></pattern></defs><circle cx="100" cy="100" r="97" fill="#1b120a" stroke="#c69a5c" stroke-width="2"/><g fill="url(#a)" stroke="#21150b" stroke-linejoin="round" stroke-width="2.4"><use href="#b"/><use href="#b" transform="rotate(60 100 100)"/><use href="#b" transform="rotate(120 100 100)"/><use href="#b" transform="rotate(180 100 100)"/><use href="#b" transform="rotate(240 100 100)"/><use href="#b" transform="rotate(300 100 100)"/></g><circle cx="100" cy="100" r="93" fill="url(#c)"/><circle cx="100" cy="100" r="93" fill="url(#d)"/><g fill="none" stroke="#dfb77a" stroke-opacity=".8" stroke-width=".9"><use href="#e"/><use href="#e" transform="rotate(60 100 100)"/><use href="#e" transform="rotate(120 100 100)"/><use href="#e" transform="rotate(180 100 100)"/><use href="#e" transform="rotate(240 100 100)"/><use href="#e" transform="rotate(300 100 100)"/></g><circle cx="100" cy="100" r="18" fill="#211407" stroke="#a67738" stroke-width="2"/><circle cx="100" cy="100" r="94" fill="none" stroke="#1a1008" stroke-width="2"/></svg>