<svg xmlns="http://www.w3.org/2000/svg" width="640" height="48" fill="none" viewBox="0 0 640 48"><defs><linearGradient id="c" x1="0" x2="0" y1="16" y2="32" gradientUnits="userSpaceOnUse"><stop stop-color="#bc328f"/><stop offset=".16" stop-color="#ff64cc"/><stop offset=".38" stop-color="#ff9cdd"/><stop offset=".62" stop-color="#ff9cdd"/><stop offset=".85" stop-color="#ff64cc"/><stop offset="1" stop-color="#bc328f"/></linearGradient><linearGradient id="e" x1="0" x2="0" y1="16" y2="32" gradientUnits="userSpaceOnUse"><stop stop-color="#bd203e"/><stop offset=".16" stop-color="#ff3d4b"/><stop offset=".38" stop-color="#ff8790"/><stop offset=".62" stop-color="#ff8790"/><stop offset=".85" stop-color="#ff3d4b"/><stop offset="1" stop-color="#bd203e"/></linearGradient><linearGradient id="f" x1="0" x2="0" y1="14" y2="34" gradientUnits="userSpaceOnUse"><stop stop-color="#211127"/><stop offset=".16" stop-color="#583445"/><stop offset=".35" stop-color="#21101f"/><stop offset=".7" stop-color="#100c15"/><stop offset="1" stop-color="#30162d"/></linearGradient><filter id="a" width="640" height="48" x="0" y="0" color-interpolation-filters="sRGB" filterUnits="userSpaceOnUse"><feGaussianBlur stdDeviation="7.5"/></filter><filter id="b" width="640" height="48" x="0" y="0" color-interpolation-filters="sRGB" filterUnits="userSpaceOnUse"><feGaussianBlur stdDeviation="2.8"/></filter><filter id="d" width="100%" height="100%" x="0" y="0" color-interpolation-filters="sRGB"><feTurbulence baseFrequency=".017 .075" result="clouds" seed="73" type="fractalNoise"/><feGaussianBlur in="clouds" stdDeviation="1.5"/><feColorMatrix type="saturate" values="0"/><feComponentTransfer><feFuncR intercept=".15" slope=".7" type="linear"/><feFuncG intercept=".15" slope=".7" type="linear"/><feFuncB intercept=".15" slope=".7" type="linear"/></feComponentTransfer><feBlend in2="SourceGraphic" mode="soft-light"/><feComposite in2="SourceGraphic" operator="in"/></filter></defs><g stroke-linecap="round" filter="url(#a)"><path stroke="#ff35d0" stroke-opacity=".74" stroke-width="10" d="M35 24h353"/><path stroke="#ff2347" stroke-opacity=".94" stroke-width="12" d="M406 24h199"/></g><g stroke-linecap="round" filter="url(#b)"><path stroke="#ff64cc" stroke-opacity=".82" stroke-width="7" d="M35 24h353"/><path stroke="#ff3d4b" stroke-opacity=".97" stroke-width="8" d="M406 24h199"/></g><rect width="361" height="16" x="31" y="16" fill="url(#c)" filter="url(#d)" rx="8"/><rect width="207" height="16" x="402" y="16" fill="url(#e)" filter="url(#d)" rx="8"/><g fill="url(#f)" stroke="#72334f" stroke-opacity=".6" stroke-width=".6"><rect width="9" height="18" x="25" y="15" rx="3"/><rect width="14" height="19" x="390" y="14.5" rx="3"/><rect width="9" height="18" x="606" y="15" rx="3"/></g><g stroke-width=".75"><path stroke="#f4a1d9" stroke-opacity=".74" d="M33 18v12m358-12v12"/><path stroke="#ff8b73" stroke-opacity=".85" d="M403 18v12m204-12v12"/><path stroke="#a74e72" stroke-opacity=".27" d="M28 18v12m366-12.5v13m6-13v13M612 18v12"/></g></svg>