<svg xmlns="http://www.w3.org/2000/svg" width="1600" height="1000" viewBox="0 0 1600 1000"><desc>Original vector artwork: layered oxidized armor, recessed fasteners, chipped paint, scored steel, vents, service markings and amber indicators. Meridian palette with Minmatar-inspired industrial construction. Designed for a 120-unit nine-slice border.</desc><defs><linearGradient id="f" x2=".2" y2="1"><stop stop-color="#79614b"/><stop offset=".12" stop-color="#4c3527"/><stop offset=".48" stop-color="#292520"/><stop offset=".8" stop-color="#483022"/><stop offset="1" stop-color="#171310"/></linearGradient><linearGradient id="b" x2=".4" y2="1"><stop stop-color="#a76238"/><stop offset=".16" stop-color="#70412b"/><stop offset=".55" stop-color="#583225"/><stop offset="1" stop-color="#30231b"/></linearGradient><linearGradient id="g" x2=".3" y2="1"><stop stop-color="#94503a"/><stop offset=".5" stop-color="#663629"/><stop offset="1" stop-color="#38251e"/></linearGradient><linearGradient id="a" x2=".8" y2="1"><stop stop-color="#c0ac88"/><stop offset=".28" stop-color="#8f887c"/><stop offset=".5" stop-color="#50483c"/><stop offset="1" stop-color="#211d19"/></linearGradient><pattern id="i" width="9" height="18" patternUnits="userSpaceOnUse"><path fill="#0e0c0b" d="M2 2h4v12H2z"/><path fill="none" stroke="#8f6745" stroke-opacity=".42" d="M6 2v13H2"/></pattern><pattern id="j" width="26" height="26" patternTransform="skewX(-32)" patternUnits="userSpaceOnUse"><path fill="#b89043" d="M0 0h12v26H0z"/><path fill="#211d19" d="M12 0h14v26H12z"/></pattern><filter id="e" width="100%" height="100%" x="0" y="0" color-interpolation-filters="sRGB"><feTurbulence baseFrequency=".038 .17" numOctaves="3" result="noise" seed="13" type="fractalNoise"/><feColorMatrix in="noise" result="pitting" values="0 0 0 0 .21 0 0 0 0 .105 0 0 0 0 .048 1.8 0 0 0 -.66"/><feBlend in="SourceGraphic" in2="pitting" mode="multiply"/></filter><filter id="k" width="100%" height="100%" x="0" y="0" color-interpolation-filters="sRGB"><feTurbulence baseFrequency=".6" numOctaves="2" seed="71" type="fractalNoise"/><feColorMatrix type="saturate" values="0"/><feComponentTransfer><feFuncA slope=".19" type="linear"/></feComponentTransfer><feBlend in="SourceGraphic" mode="soft-light"/></filter><g id="c"><circle r="10" fill="#1a100b"/><circle r="8.6" fill="#0e0c0b" stroke="#855134" stroke-width="1.4"/><path fill="url(#a)" stroke="#1a1714" d="M-3.7-6.4h7.4L7.4 0 3.7 6.4h-7.4L-7.4 0z"/><path stroke="#0e0c0b" stroke-width="2.1" d="M-3.5 0h7"/><path stroke="#b5a081" stroke-opacity=".45" stroke-width=".7" d="M-3.5 1.3h6.8"/><path fill="none" stroke="#e0863f" stroke-opacity=".45" d="M-7-4A8 8 0 0 1 4-7"/></g><g id="h"><path fill="url(#b)" stroke="#100d0b" stroke-width="2" d="M5 5h107v25l-31 6-43 39-8 32H5z"/><path fill="none" stroke="#c5905a" stroke-opacity=".55" d="M8 9h101M9 10v91m33-38 28-24 32-8"/><path fill="#38291f" stroke="#1a1714" d="m12 33 40 3-18 20-1 38H12z"/><path fill="none" stroke="#0e0c0b" stroke-width="3" d="M7 106h21l9-31 44-39 29-5"/><path fill="none" stroke="#a89f90" stroke-width="1.3" d="m35 74 6-13 20-18"/><use x="23" y="21" href="#c"/><use x="89" y="20" href="#c" transform="rotate(20 89 20)"/><use x="20" y="86" href="#c" transform="rotate(-27 20 86)"/><path stroke="#d8b58b" stroke-opacity=".35" d="M47 14h17m-20 4h24m-17 4h10"/><path stroke="#bc7a47" stroke-opacity=".6" d="M15 48v20m4-14v18m4-25v14"/></g><clipPath id="d"><path fill-rule="evenodd" d="M0 0h1600v1000H0zm119 38h1362a81 63 0 0 1 81 63v798a81 63 0 0 1-81 63H119a81 63 0 0 1-81-63V101a81 63 0 0 1 81-63z"/></clipPath></defs><g clip-path="url(#d)"><path fill="#211d19" d="M0 0h1600v1000H0z"/><g filter="url(#e)"><path fill="url(#f)" stroke="#0e0c0b" stroke-width="6" d="M3 3h1594v994H3z"/><path fill="url(#b)" stroke="#17100d" stroke-width="2" d="M117 6h262l13 11-8 16H118zm289 0h333l-11 27H400zm354 0h347l9 27H744zm368 0h354v27h-359z"/><path fill="url(#g)" stroke="#17100d" stroke-width="2" d="M119 969h265l10 24H119zm292 0h313l12 24H403zm348 0h341l13 24H747zm371 0h352v24h-359z"/><path fill="url(#b)" stroke="#17100d" stroke-width="2" d="M6 120h27v202l-8 10H6zm0 231 27-9v303L6 661zm0 335 27-16v210H6zm1561-566h27v210l-27-8zm0 225 27 11v302l-27-10zm0 328 27 13v194h-27z"/><use href="#h"/><use href="#h" transform="matrix(-1 0 0 1 1600 0)"/><use href="#h" transform="matrix(1 0 0 -1 0 1000)"/><use href="#h" transform="rotate(180 800 500)"/></g><rect width="1526" height="926" x="37" y="37" fill="none" stroke="#0e0c0b" stroke-width="7" rx="81" ry="63"/><rect width="1534" height="934" x="33" y="33" fill="none" stroke="#907354" stroke-opacity=".46" stroke-width="1.2" rx="84" ry="66"/><path fill="none" stroke="#a89f90" stroke-opacity=".5" d="M120 3h1360M3 120v760"/><path fill="none" stroke="#080706" stroke-width="3" d="M120 997h1360m117-877v760"/><path fill="none" stroke="#d39a65" stroke-opacity=".46" d="M122 8h250m40 0h312m42 0h332m35 0h345M8 125v186m0 45v286m0 48v184"/><rect width="148" height="15" x="165" y="12" fill="#171310" stroke="#866143" rx="2"/><path fill="url(#i)" d="M169 13h140v13H169z"/><rect width="168" height="16" x="1242" y="972" fill="#171310" stroke="#795238" rx="2"/><path fill="url(#i)" d="M1246 973h160v14h-160z"/><path fill="url(#j)" d="M118 969h81v8h-81zM1387 24h95v7h-95z" opacity=".67"/><path fill="url(#i)" d="M13 425h13v143H13zm1561-5h13v142h-13z" opacity=".85"/><path fill="#100d0b" stroke="#67442c" d="M383 10h17v19h-17zm346 0h18v19h-18zm379 0h16v19h-16zM390 973h15v17h-15zm346 0h14v17h-14zm376 0h12v17h-12z"/><path stroke="#886449" stroke-width="2" d="m387 12 9 15m337-15 9 15m370-15 8 15M393 976l8 11m338-11 8 11m368-11 5 11"/><path fill="#af6333" d="m3.3 102.7.7-1.4 1.1 1.1-.4 1.9-1.3.8zm910.6 889.8 1.8-1.4 2.7 1.1-.9 1.9-3.1.8zM8.2 325.2l3.2-1.5 4.8 1.2-1.6 2.1-5.6.9zm1-116.3 1.1-.9 1.7.7-.6 1.2-1.9.5zM455.4 27.3l.7-1.2 1 1-.3 1.7-1.2.7zM19.6 713.6l2.3-.5 3.4.4-1.1.7-4 .3zM5.5 346.8l.8-.4 1.2.3-.4.6-1.4.3zm26-174.6.4-.7.7.6-.2 1-.8.4zM974.1 6l1.6-1.1 2.4.9-.8 1.6-2.8.7zm614.5 634.5 1-.2 1.5.2-.5.3-1.8.1zm-2.4 285.4 2.5-1.3 3.7 1-1.2 1.8-4.3.8zm4.6-466.8 3.7-1.7 5.5 1.3-1.8 2.4-6.5 1zM287.2 22l3.2-.8 4.7.6-1.6 1.1-5.5.5zm1294.7 963.1 2.8-.5 4.2.4-1.4.7-4.9.3zm-12.8-461.4 1-1 1.5.8-.5 1.4-1.8.6zm25.6 238.2 1.3-1.3 1.9 1.1-.6 1.9-2.2.8zm-148.9 207 2.9-.5 4.4.4-1.5.8-5.1.3zm-1421-69 1.5-.8 2.2.6-.7 1.1-2.6.5zM879.7 5.7l3.5-.6 5.2.5-1.7.9-6.1.4zM1574 26.1l1.4-1.7 2.1 1.3-.7 2.4-2.4 1zm-210.2 946.4 1.8-.7 2.7.6-.9 1-3.1.4zM853.3 29.6l1.9-1.6 2.8 1.2-.9 2.2-3.3.9zm516.9-17.5 1.8-.8 2.8.7-.9 1.2-3.2.5zm-103.5 18.3 1.9-.2 2.8.2-.9.3-3.3.1zm303.2 136.7 3.2-.9 4.7.7-1.6 1.3-5.5.5zM984.3 969.5l3.1-.8 4.7.6-1.6 1.1-5.5.5zM1327.6 3l3.8-.6 5.6.5-1.9.9-6.6.4zm238.6 741.7 2.3-.7 3.5.6-1.2 1-4 .4zM391.3 989.6l2.1-.8 3.1.6-1 1.1-3.6.5zm977.6-3.2 3.6-1.6 5.4 1.3-1.8 2.3-6.3 1zM33.7 275.1l.6-.7.9.6-.3 1-1.1.4zM11.4 745.5l2.6-.6 3.9.5-1.3.9-4.6.4zM442.3 24.2l2.8-1 4.3.8-1.4 1.5-5 .6zm1137.3 660.5 2.8-.4 4.2.3-1.4.5-4.9.2zM468.9 32.3l2.5-1 3.7.8-1.2 1.4-4.3.6zm1119.7-20.2 3.4-.9 5.1.7-1.7 1.3-5.9.6zM765 991.1l2.2-1.2 3.3 1-1.1 1.7-3.8.7zM28.6 941.7l2.2-.3 3.3.2-1.1.4-3.8.2zm-17-457.4.7-1.1 1.1.9-.4 1.6-1.2.7zM6.3 686.4l2.6-1.6 3.9 1.3-1.3 2.2-4.5 1zm117.8 288 3.1-1 4.6.8-1.5 1.4-5.3.6zm1455.1-217.2 3-1 4.5.8-1.5 1.4-5.2.6zM1483 994.9l1.3-1.5 1.9 1.2-.6 2.1-2.2.9zm96.5-571.8 2.2-1.1 3.3.9-1.1 1.5-3.8.7zM635 978.5l1.8-1.4 2.7 1.1-.9 2-3.1.9zM30 865l.7-1.1 1 .9-.3 1.6-1.2.7zm543 110.5 1.3-1.2 2 .9-.7 1.6-2.4.7zm482.1 14.7 3.5-1.2 5.3.9-1.8 1.6-6.2.7zM964.5 26.3l1-.8 1.5.6-.5 1.1-1.7.5zm616.1 76.7 2.5-1 3.7.8-1.2 1.4-4.3.6zM17.8 301.7l3.6-.8 5.4.7-1.8 1.2-6.3.5zm1553 665 2.4-1.7 3.7 1.4-1.2 2.4-4.3 1zM25.1 377.6l3.8-1.5 5.6 1.2-1.9 2.1-6.6.9zM607.9 29.3l3.4-.8 5.1.6-1.7 1.1-5.9.5zM24 624.1l.8-1.3 1.2 1-.4 1.8-1.4.8zm547 370.8 1.1-1.1 1.6.9-.5 1.5-1.9.6zM612.4 8.1l3.4-.7 5.1.6-1.7 1-6 .4zm-587 36.4 3.5-.6 5.3.5-1.8.8-6.2.4zM1592.9 459l1.3-.7 2 .6-.7 1-2.4.4zm-5 327.7 2.8-1 4.3.8-1.4 1.5-5 .6zM18.1 66.7l1.9-1.4 2.9 1.1-1 2-3.4.9zm1062 910.5.6-.6.9.5-.3.8-1 .4zm143.6-957.5 1.2-1.6 1.8 1.3-.6 2.3-2.1 1zM4.5 13.8l1.6-1 2.3.8-.8 1.3-2.7.6zm1564.7 519.3 1.1-1.2 1.6 1-.5 1.7-1.9.7zM223.6 979.5l1.2-.4 1.9.3-.6.6-2.2.2zm1350.8-39.6 3.7-1 5.5.8-1.8 1.4-6.4.6zM12 503.2l1.3-.4 2 .3-.7.5-2.3.2zm1011.6 471 1.2-1 1.8.8-.6 1.4-2.1.6zm544.1-944.6 3.3-1.6 4.9 1.3-1.6 2.2-5.7.9zm1.5 878.7 1.4-1.1 2.1.9-.7 1.6-2.5.7zM7.7 655.7l1.1-.2 1.7.2-.6.3-2 .1zM32.4 806l.4-.6.6.5-.2.9-.7.4zm1538.5-13.6 3.8-.9 5.7.7-1.9 1.2-6.6.5zm3.5-331.7 2.5-.2 3.7.2-1.2.3-4.3.1zm5.6-362.9.5-1.7.8 1.3-.3 2.3-.9 1zm-607.8 884 1.9-1.1 2.9.9-1 1.6-3.4.7zM1572 201.9l1.2-1.5 1.8 1.2-.6 2.1-2.1.9zm.5-146.8 2.1-1.4 3.1 1.1-1 1.9-3.6.8zm-625 936.6 1.4-1.7 2.1 1.3-.7 2.3-2.4 1zM131.1 25.4l2.2-.8 3.4.6-1.1 1.1-3.9.5zm991.8-13.7 2.3-.9 3.4.7-1.1 1.2-4 .5zM76.7 4l1.4-.7 2.1.6-.7 1-2.4.4zm1509.6 356.7 3.4-1.2 5 .9-1.7 1.6-5.9.7zm-1.8 321.1 2.8-.5 4.2.4-1.4.7-5 .3zM1202.7 35.3l3.1-.5 4.7.4-1.6.7-5.5.3zM15.7 681.5l2.6-.4 3.9.4-1.3.6-4.5.3zm985.4 309.4 1.3-1.3 1.9 1-.6 1.8-2.3.8zm584.8-383.6 1.5-1.4 2.2 1.1-.7 1.9-2.6.8zM235.4 34.9l.7-.4 1 .3-.3.6-1.2.3zM3.8 840.5l3.6-.9 5.4.7-1.8 1.3-6.3.5zM1390.4 993l2.9-.6 4.3.5-1.4.9-5 .4zm196.7-161.3 3.7-.6 5.5.5-1.8.9-6.4.4zM27.5 320.4l1.2-1.2 1.8.9-.6 1.6-2.1.7zm407.2 648.1 3.3-1 4.9.8-1.6 1.4-5.7.6zM14.4 563.9l.8-1 1.2.8-.4 1.4-1.4.6zm287.5 405 2-1.7 3 1.3-1 2.4-3.5 1zm373 1.3 2.2-.9 3.4.7-1.1 1.2-3.9.5zM31 976.1l1.8-.2 2.6.2-.9.3-3.1.1zM559.4 26.7l1.7-1 2.6.8-.9 1.4-3 .6zm1011.3 503.7 1.3-.3 1.9.3-.6.5-2.2.2zm9.7 174.8 2.4-1.1 3.5.9-1.2 1.5-4.1.7zM22.1 980.4l2.5-.5 3.7.4-1.2.6-4.4.3zM189.4 34.2l2.2-.5 3.3.4-1.1.7-3.8.3zM12.8 350.5l2.9-.5 4.4.4-1.5.7-5.2.3z" opacity=".44"/><path fill="#c17d42" d="m624.4 980.7 2-.2 3 .2-1 .3-3.5.1zM13.3 927.4l1.9-1.2 2.8.9-.9 1.6-3.3.7zM501.8 14l.4-.8.7.6-.2 1.1-.8.5zm424.8 961.7 3.7-.4 5.6.3-1.9.6-6.5.3zm647.9-483.1 2.1-.6 3.2.5-1.1.9-3.7.4zm-305.1 479 3-1.3 4.5 1.1-1.5 1.8-5.3.8zm-26.2 6.6 1.5-1.1 2.3.9-.8 1.5-2.7.6zM28.8 187.1l2.8-.2 4.1.2-1.4.3-4.8.1zM926 20.8l.7-1.3 1.1 1-.4 1.8-1.3.8zm652 902.1 3.1-1.5 4.6 1.2-1.5 2-5.4.9zM330.3 19.5l1.4-1.3 2.1 1-.7 1.8-2.4.8zm410.9 3.1 1.5-.7 2.2.6-.7 1-2.6.4zm843.2 550.8.5-1.3.7 1.1-.2 1.9-.8.8zM3.2 96.8l2.3-1 3.5.8-1.2 1.5-4 .6zm21 72.8 3.1-.4 4.7.3-1.6.5-5.5.2zM10.6 309l.4-.5.6.4-.2.6-.8.3zm323.3 659.1 3.2-1 4.8.8-1.6 1.5-5.6.6zM15 71.1l.6-.2.9.2-.3.3-1 .1zm1421.5 908.3 2.8-1 4.2.8-1.4 1.4-4.9.6zm-832.8 8.1 3.6-.9 5.4.7-1.8 1.2-6.3.5zM812.2 5.8l3-.7 4.4.6-1.5 1-5.2.4zm409.4 989.9 3-.2 4.5.2-1.5.3-5.2.1zm354.8-973.2 2.4-1.1 3.7.9-1.2 1.5-4.3.6zM346.2 31.4l3.8-1.2 5.7 1-1.9 1.7-6.7.7zm521.6 952.8 2.1-.3 3.2.2-1.1.4-3.7.2zM31.9 316l1.6-1.7 2.4 1.3-.8 2.3-2.8 1zM1068.5 26.2l1.3-1.3 1.9 1-.6 1.8-2.3.8zM1586.6 544l2.1-1.5 3.1 1.2-1 2.1-3.6.9zM539.2 8.9l2.9-1.2 4.3 1-1.4 1.7-5 .7zM23.1 970.2l3.6-.8 5.4.6-1.8 1.1-6.3.5zM776.6 25.6l2.6-1.5 3.8 1.2-1.3 2.1-4.5.9zM5 300l2.3-.7 3.5.6-1.2 1-4.1.4zm1577.2 688.1 3.8-.9 5.7.8-1.9 1.3-6.6.6zM11.2 204.2l3.5-1 5.2.8-1.7 1.5-6.1.6zM9.2 981l2.8-.4 4.1.3-1.4.6-4.8.3zm21.7-814.6 1.5-1.5 2.3 1.2-.8 2.1-2.7.9zm1353.6 825.8 2.5-.9 3.7.7-1.2 1.2-4.3.5zm-1233.2-4.3 2.3-.3 3.4.3-1.1.5-4 .2zM105 26.6l3.2-1.2 4.9.9-1.6 1.6-5.7.7zm1465.8 575.6.9-.8 1.4.6-.5 1.1-1.6.5zm-233.6-567 3.3-.9 5 .7-1.7 1.2-5.9.5zM1125.3 980l3.3-1.3 4.9 1-1.6 1.8-5.7.8zM354.7 25.9l1.8-1.3 2.6 1-.9 1.8-3.1.8zm1218.7-.3 1.9-1.4 2.8 1.1-.9 2-3.2.8zm-566.2 968.6 1.1-.6 1.7.5-.6.9-2 .4zm252.6-10.2 2.4-1.6 3.6 1.3-1.2 2.2-4.1 1zM1589.2.7l1.6-.9 2.4.7-.8 1.2-2.8.5zM31.3 747.3l.4-1.3.7 1.1-.2 1.9-.8.8zM16.7 33.9l2.1-.2 3.2.2-1.1.3-3.7.1zm9.7 371 1.2-1.4 1.8 1.1-.6 2-2.1.9zM1392 12.8l1.9-1 2.8.8-.9 1.4-3.3.6zM24.5 316.2l3-.3 4.5.3-1.5.4-5.3.2zm1560.3 556 .9-1.4 1.4 1.1-.5 1.9-1.6.8zm-5.5-82.7 2.1-1.7 3.2 1.4-1.1 2.4-3.7 1zm-11.4-7.6 1.2-.8 1.8.6-.6 1.1-2.1.5zm-118.5 200.3 3.3-.7 5 .5-1.7 1-5.8.4zM316.5 22.4l3-1.1 4.5.9-1.5 1.5-5.2.6zM609.6 6.6l3.6-.8 5.3.6-1.8 1.1-6.2.5zM35.5 529.8l1.1-.5 1.7.4-.6.6-2 .3zM231.6 26.3l2.8-1.7 4.2 1.3-1.4 2.4-4.9 1zm1344.1 882.5.4-1 .6.8-.2 1.4-.7.6zm-5-4 .9-1.2 1.3 1-.4 1.7-1.5.7zM46.5 11.9l.8-.7 1.2.5-.4 1-1.4.4zm700.4 15.6 1.6-1.1 2.4.9-.8 1.5-2.9.7zm832.7 2.2 1.1-.4 1.7.3-.6.6-2 .3zM34.5 459.2l1.4-.3 2.2.2-.7.4-2.5.2zM215.1 18.7l3.5-1.4 5.2 1.1-1.7 2-6.1.9zm906.6 958.5 1.8-.7 2.8.5-.9.9-3.2.4zm473-852 2.4-.5 3.6.4-1.2.7-4.2.3zM27.9 974.6l3.4-.2 5.1.2-1.7.3-6 .1zm1542.2-165.2 2.1-1.4 3.2 1.1-1.1 1.9-3.7.8zM1099.7 19.6l1-1.6 1.5 1.3-.5 2.3-1.8 1zm-66.4.1 3.3-.4 5 .3-1.7.6-5.8.3zm541.5 950.5 2.8-1.2 4.2.9-1.4 1.6-4.9.7zM433.8 11.8l3.2-1.3 4.8 1.1-1.6 1.8-5.6.8zm-421.9 337 2-1.2 3.1 1-1 1.7-3.6.7zM8.7 581.1l3.2-1.4 4.8 1.1-1.6 2-5.6.9zm8 413.2 1.6-.9 2.4.7-.8 1.3-2.8.5zM1587.8 601l.5-.5.7.4-.2.7-.9.3zM30.5 112.7l2.1-1.1 3.1.9-1 1.6-3.6.7zm1555 423.1 3-.2 4.5.2-1.5.3-5.3.1zM786.5 17l1-.4 1.6.3-.5.5-1.8.2zM16.7 842l2-1.1 3 .9-1 1.6-3.5.7zm1562.8-671.1 1.1-1.6 1.7 1.3-.6 2.3-2 1zM34.8 533.9l2.2-1.3 3.3 1-1.1 1.8-3.9.8zm605.1 450.6.7-1.4 1 1.2-.3 2-1.1.9zm936.2 15.3 2.5-1.7 3.7 1.3-1.2 2.3-4.3 1zm3.6-994.4 3.3-1.3 4.9 1-1.6 1.8-5.8.8zM860.4 987.5l1.7-.4 2.5.3-.8.5-3 .2zM829.1 13.9l3.7-.5 5.5.4-1.8.8-6.5.3zM227.5 974.3l3-.3 4.5.2-1.5.4-5.3.2zM26.7 864.5l2.2-.3 3.3.2-1.1.4-3.8.2zm1431 122.9.8-.6 1.2.5-.4.8-1.4.3zm112.2-116.6 1.2-1 1.8.8-.6 1.5-2.1.6zM1380.4 15l.7-1.4 1.1 1.1-.4 2-1.2.9zM492.8 980.2l.8-1.3 1.2 1.1-.4 1.9-1.4.8zm-488-107 .7-.6 1 .5-.3.8-1.2.3zm1482.4-864 1.7-1.4 2.5 1.1-.8 2-2.9.8zm-95.6 15.7 1.3-.2 1.9.2-.6.3-2.3.1zM342.5 10.2l1.8-.3 2.7.2-.9.4-3.2.2zm885.2 14.7 3.4-1.2 5 1-1.7 1.7-5.9.7zM559.4 4l1-.9 1.5.7-.5 1.3-1.8.6zM1581 476.9l.7-.2 1 .2-.3.3-1.2.1zM31.1 669.3l2.4-.8 3.6.7-1.2 1.2-4.3.5zM1016 34.6l3.1-1.7 4.7 1.3-1.6 2.3-5.5 1z" opacity=".44"/><path fill="#74371f" d="m1585.4 577.8 1.8-.6 2.6.5-.9.9-3.1.4zm10.1-21.6 1.5-1 2.3.8-.8 1.4-2.7.6zM161.1 15.7l3.3-1.3 5 1-1.7 1.8-5.8.8zm345 954.4.4-.2.6.2-.2.3-.7.1zM1532.4 8.5l2.5-1.1 3.7.9-1.2 1.6-4.3.7zm-698.2 973 1.7-1.4 2.5 1.1-.8 1.9-3 .8zm704.7-6.5 2.8-1.2 4.2 1-1.4 1.7-4.9.7zm-1246.4-2 1-.4 1.5.3-.5.6-1.8.3zm971.2-5.8 3.7-1.1 5.5.9-1.8 1.6-6.5.7zm324.7 22.6.3-.6.5.5-.2.8-.6.3zm-8.1-210.8 2-1.7 3 1.4-1 2.4-3.5 1zM913.5 982.7l.6-.5 1 .4-.3.6-1.1.3zM1584.6 190l.4-1 .6.8-.2 1.4-.7.6zM30.8 599.7l.6-1.3.9 1.1-.3 1.9-1.1.8zm-21-10.6 1.6-.2 2.3.2-.8.3-2.7.1zM263.6 20l.9-.6 1.3.4-.4.8-1.6.3zM22.3 784.3l.7-.7 1.1.6-.4 1-1.3.4zm1545.3-743 2.3-.5 3.4.4-1.1.7-3.9.3zm-195 934.1 2.4-.7 3.5.6-1.2 1-4.1.4zm-935.2 7.3 2-1.2 2.9 1-1 1.7-3.4.7zm287.8 4.7.9-1.5 1.3 1.2-.4 2.1-1.5.9zM684.8 32.5l.4-.8.6.7-.2 1.2-.7.5zM1592.9 984l3.9-.8 5.8.6-1.9 1.1-6.8.5zM32.7 980.5l2.2-.4 3.2.3-1.1.5-3.8.2zM516.2 10.2l3.8-.3 5.7.2-1.9.4-6.6.2zm1078.6 961 .9-1 1.3.8-.4 1.4-1.5.6zM340.6 33.4l3.6-1.5 5.4 1.2-1.8 2.1-6.2.9zM26.4 549.1l.6-.6.9.5-.3.8-1.1.3zm1562.7 175.5 2.3-.4 3.5.3-1.2.5-4.1.2zM19.3 275.2l1.4-1.2 2 1-.7 1.7-2.4.7zM1570.8 85.1l3.3-1.6 4.9 1.3-1.6 2.2-5.8 1zm-158.7 882.4 3.7-1 5.5.8-1.8 1.4-6.5.6zm165.3-710.4 3-.6 4.4.5-1.5.9-5.2.4zM94.5 993.6l.6-.9.9.7-.3 1.3-1 .6zm820.9-15.5 3.1-.5 4.6.4-1.5.6-5.4.3zM30.6 386.5l.3-.9.4.7-.1 1.2-.5.5zM1592.5 83.1l.3-.2.5.2-.2.3-.6.1zM20.1 553l1.5-1 2.2.8-.7 1.3-2.6.6zm881-520.2.7-1.2 1 1-.3 1.7-1.2.7zm683.2 744.6 2.3-1.6 3.5 1.3-1.2 2.3-4.1 1zM508.8 980.6l3-1 4.6.8-1.5 1.4-5.3.6zm1076.6-819.9 3.8-.2 5.6.2-1.9.3-6.6.1zm-13.7 430.1.5-.5.7.4-.2.7-.8.3zm15.9-517.5 2.1-.7 3.1.6-1 1-3.6.4zM35.2 804.5l1.4-1.5 2.1 1.2-.7 2.1-2.5.9zm91-792.6.7-1.1 1.1.9-.4 1.5-1.2.7zm1449.5 409.4 1.9-1.4 2.8 1.1-.9 1.9-3.2.8zM215.5 977.9l1.7-.3 2.5.3-.8.5-2.9.2zm-181.6-8.7 3.3-1.1 5 .9-1.7 1.5-5.8.6zm1553.4-32 2.1-.3 3.2.2-1.1.4-3.8.2zm-12.9-129.9 1.3-1.1 1.9.9-.6 1.6-2.3.7zm.3-267.3 1.3-1 2 .8-.7 1.4-2.3.6zM57.7 971.4l3.3-1 5 .8-1.7 1.4-5.8.6zM791.2 4.8l3.2-.4 4.9.3-1.6.6-5.7.2zM101.4 980.2l1-1.5 1.5 1.2-.5 2.1-1.8.9zm1468.1-637.1 2.1-.3 3.1.2-1 .4-3.6.2zM1469.8 26l1.2-.9 1.8.7-.6 1.2-2.1.5zm-300.5 965 2.3-.7 3.4.6-1.1 1-4 .4zM468.4 24.8l3.5-.8 5.2.7-1.7 1.2-6.1.5zM16.2 481.1l1.6-1 2.3.8-.8 1.5-2.7.6zm1575.2 216.7 2.1-.6 3.1.5-1 .8-3.7.3zm-17.1-171.5 2.8-1.1 4.2.9-1.4 1.5-4.9.6zM7.2 936.9l.4-1.5.6 1.2-.2 2.1-.7.9zm1586.4-548.7.9-1.6 1.3 1.3-.4 2.3-1.5 1zM408.9 29.6l1.2-.5 1.8.4-.6.7-2.1.3zM12.4 723.7l1.3-1.1 2 .9-.7 1.6-2.3.7zm16.5-584 1.8-1.5 2.8 1.2-.9 2.1-3.2.9zM10 255.8l2.7-.8 4 .6-1.3 1.1-4.6.5zm57.3-227 1.4-.9 2 .7-.7 1.2-2.4.5zM16.1 790.7l1.4-1 2.1.8-.7 1.4-2.4.6zm1564.1-566.4 1.4-.4 2.1.3-.7.6-2.4.3zM1426.6 13.4l2.6-1.7 3.9 1.3-1.3 2.3-4.6 1zm152.4 323 1.1-.8 1.6.6-.5 1.1-1.9.5zm1.5-44.4 3.7-1.2 5.6 1-1.9 1.7-6.5.7zm-266.9 674.3 3.4-1.1 5.2.8-1.7 1.5-6 .6zm87.1-935.2 2.7-1.5 4.1 1.2-1.4 2.1-4.7.9zM370.8 976l2.1-.6 3.1.5-1 .9-3.6.4zm1206.5-508.5.3-1.3.5 1-.2 1.8-.6.8zM6.9 109l3.1-1.4 4.6 1.1-1.5 2-5.4.9zm1587.8 553.3 3.6-.7 5.4.5-1.8.9-6.3.4zM646 27.9l1.4-1.3 2.1 1-.7 1.8-2.4.8zm925.7 64.6 3.1-1.3 4.6 1-1.5 1.8-5.4.8zM34.9 548l3.8-.7 5.7.5-1.9.9-6.7.4zm1547.3 357.4 2.8-.4 4.2.3-1.4.6-4.8.2zM283.9 6.5l1.3-1.3 1.9 1-.6 1.8-2.2.8zM256 975l3.6-1.5 5.3 1.2-1.8 2.1-6.2.9zm-18.1 16.4.9-.8 1.3.6-.4 1.1-1.6.5zm609.8-9.3.7-.8 1.1.7-.4 1.2-1.2.5zM230.2 6.6l2.7-.3 4 .2-1.3.4-4.7.2zm-90.5 965.1.9-.9 1.4.7-.5 1.2-1.6.5zM1303.5 983l2.9-1.1 4.4.9-1.5 1.6-5.1.7zm282.2-182.7 3.8-1 5.8.8-1.9 1.4-6.7.6zM62.5 31.5l.4-1.6.6 1.3-.2 2.2-.8 1zm1286.7-18 3.5-1.5 5.2 1.2-1.7 2.1-6.1.9zm-886 9.8 3.7-.2 5.5.2-1.8.3-6.4.1zm713.2-4.7 3.3-1.5 5 1.2-1.7 2.1-5.8.9zM271.1 991.4l1.2-1 1.7.8-.6 1.4-2 .6zm568-976.6 1.7-1.1 2.6.9-.9 1.5-3 .7zM6.3 769.3l3.3-.6 5 .5-1.7.8-5.8.3zM1001 29.6l3-1.4 4.5 1.2-1.5 2-5.3.9zM25.5 379.8l1.1-1.7 1.6 1.3-.5 2.4-1.9 1zm1545.7 189.8.9-1.7 1.4 1.3-.5 2.3-1.6 1zM4.4 266.3l.4-1 .5.8-.2 1.3-.6.6zM1501.3 15.4l1.4-1.4 2.1 1.2-.7 2-2.5.9zm68.6 465.3.7-.7 1.1.6-.4 1-1.2.4z" opacity=".44"/><path fill="#20150f" d="m318.9 30.6 1.4-.4 2 .3-.7.6-2.4.2zm1257.9 362.2 1.3-.6 1.9.5-.6.9-2.2.4zm10.5-92.1 3.5-.8 5.3.7-1.8 1.2-6.2.5zM4.4 227.8l2.5-1.5 3.8 1.2-1.3 2.2-4.4.9zm1415 750.5.6-1.2.9 1-.3 1.7-1.1.7zm158-584.8 2.8-.6 4.2.5-1.4.9-4.9.4zM947.2 19.8l1.1-.3 1.7.2-.6.4-2 .2zM724.3 3.7l1.9-1.1 2.8.8-.9 1.5-3.3.6zM24.2 651.5l2.5-1.6 3.8 1.3-1.3 2.2-4.4 1zm239-642.1 3.6-.7 5.4.6-1.8 1-6.3.4zM492 967.1l2.4-1.3 3.7 1-1.2 1.8-4.3.8zm415.8 10.8 1.9-1.5 2.9 1.2-1 2.1-3.4.9zm452.8-1.2.8-.7 1.1.6-.4 1-1.3.4zM3.4 703.9l1.9-.3 2.8.3-.9.4-3.3.2zm12.7-160.6 2.2-1 3.4.8-1.1 1.4-3.9.6zm88.5-531.7 3.6-.8 5.4.7-1.8 1.2-6.3.5zm1476.8 495.2 2-.4 3 .3-1 .5-3.5.2zm-132.9 480.9 1-.8 1.6.6-.5 1.1-1.8.5zM19.7 487.7l2.8-.7 4.1.5-1.4.9-4.8.4zM1117.5 26.5l3-1.5 4.5 1.2-1.5 2.2-5.2.9zM24 19.6l1.7-.4 2.6.3-.9.6-3 .3zm292.6 967.7 3.7-.8 5.6.6-1.9 1.1-6.5.5zm906.6-.5.3-.9.5.7-.2 1.2-.6.5zm-963.8 4.3 3.2-1.3 4.8 1.1-1.6 1.8-5.5.8zm882.4-18.3.6-1.3.9 1-.3 1.8-1 .8zm428.8-45.3 3.6-.7 5.4.5-1.8.9-6.3.4zM1542.9 11l3.5-1.1 5.2.9-1.7 1.6-6.1.7zM697.3 968.3l2.1-1.5 3.2 1.2-1.1 2-3.7.9zM9.1 496.7l1.4-1.3 2 1.1-.7 1.9-2.4.8zM220.8 27.3l.7-1.6 1.1 1.3-.4 2.3-1.3 1zm762.5 5.1 2.2-.4 3.3.3-1.1.5-3.9.2zM1567.4 143l2.3-1.5 3.4 1.2-1.1 2.1-4 .9zM506.1 988.9l.4-.8.6.7-.2 1.2-.7.5zm1077-939.8 3.8-1 5.6.8-1.9 1.4-6.6.6zM6.2 474.6l3.2-.4 4.8.3-1.6.6-5.6.2zm1588.4 42.6 1.3-1 1.9.8-.6 1.5-2.3.6zM959.1 968.6l2.5-1 3.7.8-1.2 1.5-4.4.6zm513.7 4 .8-1.2 1.3 1-.4 1.7-1.5.7zM18.1 17.9l1.6-.2 2.4.2-.8.3-2.8.1zM44.6 3.8l3.8-1.4 5.7 1.1-1.9 1.9-6.7.8zm1530.2 770.3 2.4-.3 3.6.3-1.2.5-4.2.2zM621.4 31.2l1-.7 1.5.5-.5.9-1.8.4zm310.2 948.5 3.1-.5 4.6.4-1.5.7-5.3.3zM458.5 4.3l1.7-1 2.6.8-.9 1.3-3 .6zm-445 211.3 3.2-.6 4.8.5-1.6.8-5.6.3zM1566.9 355l2.8-1.4 4.3 1.1-1.4 1.9-5 .8zm-278.2 618 .4-1.3.6 1.1-.2 1.9-.7.8zm289-684.4 3.8-1.1 5.7.9-1.9 1.5-6.6.6zM5.1 757l2.2-1.2 3.4 1-1.1 1.7-3.9.7zm13-591.7 2-1.3 3 1-1 1.8-3.5.8zm-9.5-.3 2-.7 3 .6-1 1-3.5.4zM5.2 313.3l2.9-1.1 4.3.9-1.4 1.5-5 .7zm12.3 386.2 2.8-.7 4.2.5-1.4.9-4.9.4zm1561-677.6.7-.9 1 .7-.3 1.3-1.2.5zm-138-8 1.1-.8 1.6.6-.5 1.1-1.9.5zM662.1 4.8l3.1-.7 4.6.5-1.5.9-5.4.4zm732 22.7 1.1-1.7 1.6 1.3-.5 2.4-1.9 1zm-55.6-1.4 2.2-1.2 3.2 1-1.1 1.7-3.8.7zM29.9 909.7l1.9-.7 2.9.5-1 .9-3.4.4zM530.1 8l3.7-.9 5.5.7-1.8 1.2-6.5.5zM1569 444.6l1.9-1.4 2.8 1.1-.9 1.9-3.2.8zM228.1 4.3l2.5-1 3.7.8-1.2 1.4-4.3.6zm952.6 4.2 1.5-.9 2.2.7-.7 1.3-2.6.5zM737.1 31.8l3.4-1.6 5.1 1.3-1.7 2.3-6 1zM1594 553.3l3.4-1.3 5.2 1-1.7 1.8-6 .8zm-39.3 420 .4-1.2.7 1-.2 1.7-.8.7zm14.7-908.7 1.4-.7 2 .5-.7.9-2.4.4zM644.6 990.3l2.2-1.4 3.3 1.1-1.1 2-3.9.9zm-630.9-746 3.1-1.3 4.6 1-1.5 1.8-5.4.8zM896.9 988l3-1.4 4.6 1.1-1.5 2-5.3.8zM669.6 8.5l3.6-.7 5.4.6-1.8 1-6.3.4zM7.3 703.2l1.7-1.7 2.5 1.4-.8 2.4-2.9 1zm1572.2-67.7 1.7-.5 2.5.4-.8.7-2.9.3zM16.7 95.1l3.4-.7 5.1.5-1.7.9-6 .4zm1550.9 739.4 3.1-.6 4.6.5-1.5.9-5.4.4zm22.6-735 .7-.9 1.1.7-.4 1.2-1.3.5zm-4.7 31.7 2.7-.4 4.1.3-1.4.6-4.8.2zM143.9 29.7l3.2-.5 4.7.4-1.6.7-5.5.3zm1142 962.4 3.5-.9 5.3.7-1.8 1.3-6.1.5zM749.5 24.8l.5-1.6.7 1.3-.2 2.3-.8 1zm828.1 408.1 1.2-1.1 1.7.9-.6 1.5-2 .7zM203.2 992.5l.6-1.2.9 1-.3 1.7-1.1.7zM5.6 94.5l2.8-.8 4.3.6-1.4 1.1-5 .5zm427.5-81.2 2.2-.5 3.2.4-1.1.7-3.8.3zM22.6 293.1l1.1-1.3 1.7 1-.6 1.8-1.9.8zm-2.1 253.7.6-1.6.9 1.3-.3 2.2-1 .9zm1560.1 6.4 2.6-1.5 3.9 1.2-1.3 2.2-4.5.9zm-7.2 56.1 3-1 4.5.8-1.5 1.5-5.3.6zm-4.6-269.4 3.4-1.6 5.1 1.3-1.7 2.3-6 1zm6.6 290.9 1.4-.9 2.2.7-.7 1.2-2.5.5zM758.9 12.6l2.8-.6 4.3.5-1.4.8-5 .3zm496.4 21.8 1.4-.9 2.1.7-.7 1.3-2.5.5zm212.9-13.2 3.3-1.3 4.9 1.1-1.6 1.8-5.7.8zM34.5 293.4l2.6-.4 3.9.4-1.3.6-4.5.3zm92-260.1 3.3-.9 4.9.8-1.6 1.3-5.7.6zM12.6 553l2.8-.3 4.1.2-1.4.4-4.8.2zM1169.1 9.9l1.3-.6 1.9.5-.6.9-2.2.4zm205.4 961.7.3-1.7.5 1.3-.2 2.3-.6 1zM4.4 403.2l2.6-1 3.9.8-1.3 1.4-4.6.6zm1583-113.7.3-1.6.5 1.3-.2 2.3-.6 1zM1125.6 16.3l3-1.6 4.5 1.3-1.5 2.2-5.2.9zM7.6 288.5l3.1-1.4 4.6 1.1-1.5 2-5.4.9zM1590 821.6l.6-1.3.9 1.1-.3 1.9-1.1.8zm-149.4-791 3.5-1.5 5.3 1.2-1.8 2.1-6.2.9zM797.9 17.1l3.6-1.5 5.4 1.2-1.8 2.2-6.4.9z" opacity=".7"/><path fill="#d69453" d="m12.7 931 3.2-.3 4.8.2-1.6.4-5.6.2zm172-896 .3-.9.5.7-.2 1.2-.6.5zm1397-8.3 2.7-1.3 4.1 1-1.4 1.8-4.8.8zm-8.1 598 3.8-.9 5.7.7-1.9 1.2-6.7.5zM959.5 989.5l2.8-1.5 4.1 1.2-1.4 2.2-4.8.9zM619.8 6.3 622 6l3.3.3-1.1.5-3.9.2zM459.4 8.5l2.7-.9 4 .7-1.3 1.2-4.7.5zM25.8 542.2l.6-1 .9.8-.3 1.4-1.1.6zm1550.4 273.9 3.8-.8 5.7.7-1.9 1.2-6.7.5zm15.8-636.9.5-.8.7.6-.2 1.1-.8.5zM539.4 994l1.3-1 1.9.8-.6 1.4-2.2.6zM28.9 433.3l1.7-.4 2.5.3-.8.5-2.9.2zm188.6 547.3 1-1.4 1.4 1.1-.5 2-1.7.9zM518.2 16.9l3.9-1.2 5.8.9-1.9 1.6-6.8.7zm-328.2.6.8-1.5 1.3 1.2-.4 2.1-1.5.9zm696.2 962.6 1.4-1.5 2.1 1.2-.7 2-2.5.9zm680.2-270.7 3.7-.8 5.5.6-1.8 1.1-6.4.5zm-73.6-706 2.9-1 4.3.8-1.4 1.4-5 .6zM22.9 913.4l1.8-1.3 2.7 1-.9 1.8-3.2.8zM1533.3 10.3l.9-.7 1.3.5-.4 1-1.5.4zM35.5 310.9l2.1-.9 3.1.8-1 1.3-3.7.6zm1541.3-78.2 1-1.5 1.5 1.2-.5 2.1-1.8.9zM158.8 15.8l3.4-.3 5.2.2-1.7.4-6 .2zm1436.1 230.5 1.6-1.2 2.3.9-.8 1.6-2.7.7zM459.9 4.7l3-1.6 4.5 1.3-1.5 2.3-5.3 1zm122.4 13.6 1.9-1.2 2.9 1-1 1.7-3.3.7zM172.2 987.7l3.2-1.5 4.8 1.2-1.6 2.1-5.6.9zm1399.9-140.2 2.6-.7 3.9.6-1.3 1-4.5.4zm9.4-411.2.5-.5.8.4-.3.7-.9.3zm-4.3 301.3 2.7-.9 4 .7-1.3 1.3-4.7.6zM993.2 3.8l2.2-1.5 3.4 1.2-1.1 2.1-3.9.9zm450.5 972.8 1.5-1 2.3.8-.8 1.4-2.7.6zm132.2-144 3.2-1.4 4.8 1.1-1.6 1.9-5.6.8zM1383 29.8l2.9-1.6 4.4 1.3-1.5 2.2-5.1.9zM137.4 6.9l.7-.9 1.1.7-.4 1.2-1.3.5zM31.5 483l1.6-1 2.3.8-.8 1.4-2.7.6zm737 503.8 2-.5 3 .4-1 .8-3.5.3zM811 34.9l1.8-1.7 2.8 1.3-.9 2.4-3.2 1zm-48.7-1.2 2.3-.9 3.5.7-1.2 1.3-4.1.5zm-733.7 574 1.5-.6 2.2.5-.7.9-2.6.4zm424.2 384.2 2-.5 3.1.4-1 .7-3.6.3zM15 962.7l2.1-1.1 3.2.9-1.1 1.5-3.7.6zm268.4 32.7 2.5-.5 3.7.4-1.2.7-4.4.3zM224.2 4.2l2.1-1.1 3.1.9-1 1.5-3.6.6zM30.8 250.4l1.7-1.1 2.5.8-.8 1.5-3 .6zm1026.4 742.3 2.4-1.5 3.7 1.2-1.2 2.1-4.3.9zm-40.2-17.3.6-.9.9.8-.3 1.3-1 .6zM807.5 22.6l.3-1 .5.8-.2 1.4-.6.6zm777.2 360.8 3.4-1.5 5.1 1.2-1.7 2.1-5.9.9zM1425.5 30.7l1.7-.3 2.5.2-.8.4-2.9.2zM35.5 544.5l.6-.6.8.5-.3.8-1 .3zM1401.6 7.1l2.4-.3 3.6.2-1.2.4-4.1.2zm169.4 604 2.5-.3 3.8.3-1.3.5-4.4.2zm-1150.7 373 2.9-.6 4.4.5-1.5.8-5.1.4zM5.7 911.3l2.4-.6 3.6.4-1.2.8-4.2.3zm1574.2-217.1 3.7-.7 5.6.6-1.9 1-6.5.4zM5.6 962.4l2.3-.4 3.4.3-1.1.5-3.9.2zm1220.2-931 2.5-1.5 3.8 1.2-1.3 2.1-4.4.9zm-122.6-13.6 2.3-.6 3.4.5-1.1.9-4 .4zM201.3 984.7l2.1-1.1 3.2.9-1.1 1.5-3.7.6zm1381.4-50.2.9-1.3 1.4 1-.5 1.8-1.6.8zm-5.7-372 3.9-.6 5.8.5-1.9.8-6.7.3zM26.6 699.1l.6-1.2.9.9-.3 1.6-1 .7zm296 286.2 3.8-.2 5.7.2-1.9.3-6.6.1zM161.4 26.9l2.4-.8 3.6.6-1.2 1.1-4.2.5zM1569 447.5l3.9-1.3 5.8 1-1.9 1.8-6.7.8zm19.2 149.2 2.2-.3 3.3.2-1.1.4-3.9.2zM881.8 28l3.6-1.1 5.5.9-1.8 1.5-6.4.6zM270.1 985.8l1.8-.8 2.7.6-.9 1.1-3.1.5zM105 32.8l.8-1.1 1.2.9-.4 1.6-1.4.7zM13.1 400.3l3.1-1.4 4.7 1.1-1.6 1.9-5.5.8zM3.4 668.4l3.5-1.3 5.3 1-1.8 1.8-6.2.8zm1456.8 323.8 1.5-.7 2.2.6-.7 1-2.6.4zm-1437-363 1.8-.9 2.7.7-.9 1.2-3.1.5zm1560.6 205.7 2.7-.8 4 .6-1.3 1.1-4.7.5zm-583.2 154.6 3.4-1.2 5.1 1-1.7 1.7-5.9.7zM12.4 443l1.3-1.5 2 1.2-.7 2.1-2.3.9zm311.3 547 1.5-.7 2.3.5-.8 1-2.6.4zm538.7.6 2-1.2 2.9 1-1 1.7-3.4.7zM441.8 9.5l2.7-1 4 .8-1.3 1.4-4.6.6zm1127.4 543 1.9-1.3 2.9 1-1 1.8-3.4.8zM27.7 682.2l1.8-.8 2.7.6-.9 1.1-3.2.5zm1553.8-248.7.7-.7 1 .5-.3 1-1.2.4zm-539.4 538.4 2.7-.7 4.1.5-1.4.9-4.8.4zm470.3-955.2 2.4-.6 3.5.5-1.2.9-4.1.4zM16.6 904.6l3-.7 4.5.6-1.5 1-5.2.4zM5.7 989.3l1.2-.9 1.8.7-.6 1.2-2.1.5zm1022.4-983 2.5-.4 3.8.3-1.3.6-4.4.2zm562.5 984.5.5-.3.7.2-.2.4-.8.2zm-20.4-144.1 1.7-.9 2.6.8-.9 1.3-3 .6zM18.1 388.4l1.8-1 2.7.8-.9 1.3-3.1.6zM1583.7 545l1.7-1 2.6.8-.9 1.5-3 .6zM242.1 988.3l1.2-1 1.8.8-.6 1.4-2.2.6zm1337.8-154.5 3.8-.7 5.7.5-1.9.9-6.7.4zm8.4-718.6.5-1 .8.8-.3 1.4-.9.6zM3.5 525.4l1.5-1.6 2.2 1.3-.7 2.2-2.6 1zm713.7 469.9 2.8-.7 4.1.5-1.4.9-4.8.4zm-194.7-26.2 2.7-1.1 4.1.8-1.4 1.5-4.8.6zM1582.6 20.5l3.9-.4 5.8.4-1.9.6-6.8.3zm4.7 748.2 1.3-1.3 2 1-.7 1.8-2.3.8zm-2.8-265.4 3.5-.8 5.3.6-1.8 1.1-6.2.5zM1472.4 27.1l1.4-.8 2 .7-.7 1.2-2.4.5zm114.2 326.2 2.6-1.2 3.9 1-1.3 1.7-4.5.7zm-1571.9-75 1.9-1.6 2.8 1.3-.9 2.3-3.3 1zm19.6 368 2.5-.5 3.7.4-1.2.8-4.3.3z" opacity=".44"/><path fill="#493020" d="M31.1 3.5 33 2.1l2.8 1.1-.9 2-3.3.9zm420.3 976.1.6-.4.9.3-.3.6-1.1.3zm-406.1-10 2.9-.6 4.4.4-1.5.8-5.1.3zM161 31.9l.7-1.4 1 1.1-.3 1.9-1.2.8zm8.3.3 2.7-.6 4.1.5-1.4.8-4.8.4zm970.4 945.4 3.8-1.2 5.7.9-1.9 1.6-6.6.7zM12.1 769.6l.7-.2 1.1.2-.4.3-1.3.1zM1102.8 21.8l.4-.8.5.7-.2 1.2-.6.5zM23.2 584.9l1.7-1.7 2.6 1.4-.9 2.4-3 1zm1548.2-338.3 1.6-.8 2.4.6-.8 1.1-2.8.5zM948.7 24l2.1-.9 3.1.7-1 1.2-3.7.5zM444.3 985.5l.6-.6.8.5-.3.9-1 .4zm1133.5-579.3 2.8-1.4 4.2 1.2-1.4 2-4.9.9zm5.5 406.4 2.1-1.6 3.2 1.2-1.1 2.2-3.7.9zM19.3 525.4l2.5-1.6 3.7 1.3-1.2 2.2-4.3.9zM1385.2 8.5l1.5-.9 2.2.7-.7 1.2-2.6.5zM918.9 975.6l1.6-.5 2.4.4-.8.7-2.8.3zM13.1 40.9l.4-1.2.7.9-.2 1.6-.8.7zM887.7 9.4l1.3-1.2 1.9.9-.6 1.7-2.2.7zM1572 25.5l.8-.3 1.2.2-.4.4-1.4.2zm17.9 954.4.9-.8 1.3.7-.4 1.1-1.5.5zm-11.6-619.7 3.2-.3 4.7.2-1.6.4-5.5.2zM68.3 11.6l.8-1 1.2.8-.4 1.3-1.4.6zm698.1 5.5 2.4-1 3.6.8-1.2 1.4-4.2.6zm432-9.4 2.1-.3 3.2.2-1.1.4-3.7.2zm375.2 369.9 2.5-1 3.7.8-1.2 1.5-4.4.6zM99.7 6.2l1.8-.2 2.8.2-.9.3-3.2.1zm-86.9 747 2-.4 3 .3-1 .5-3.4.2zm1579.6-88.4 2.5-1.5 3.8 1.2-1.3 2.1-4.4.9zM275.8 992.9l2.6-1.5 4 1.2-1.3 2-4.6.9zm-262-485.3 1.4-.4 2.1.3-.7.5-2.5.2zm18.1 430.9 3.3-.7 5 .5-1.7.9-5.8.4zM840.7 21.2 843 20l3.4 1-1.1 1.7-4 .7zM30.2 377.6l.5-.3.7.3-.2.5-.9.2zM1595 257.8l1.4-1.1 2 .9-.7 1.6-2.4.7zm-69.8-236.1 3-1.2 4.5.9-1.5 1.6-5.2.7zM1571 989l2.7-.9 4.1.7-1.4 1.2-4.7.5zM8.9 257.7l.4-1 .6.8-.2 1.3-.7.6zm26.8 568 2.1-1.3 3.1 1.1-1 1.9-3.7.8zm1556-586.3 2.8-.3 4.2.2-1.4.4-4.9.2zM464.8 988.1l2.8-.2 4.2.2-1.4.3-4.9.1zM547.1 27l2.8-.3 4.3.3-1.4.5-5 .2zm-533 883.2 2.3-1.2 3.4 1-1.1 1.7-4 .7zm10.1 31.5 3.8-.4 5.7.3-1.9.5-6.6.2zm1564-175.2.5-.8.8.7-.3 1.1-.9.5zM25.8 900.7l1.5-.7 2.3.5-.8.9-2.6.4zM938.9 21.1l3.3-1.2 5 .9-1.7 1.7-5.8.7zm-405.4-2.6 3.3-.3 4.9.3-1.6.4-5.8.2zM15.2 812.1l1.8-1.5 2.7 1.2-.9 2.1-3.2.9zm1551.1-330.3 2.5-.9 3.8.7-1.3 1.2-4.4.5zm-290.2 511.6.5-1.1.7.9-.2 1.5-.8.6zM23.4 147.8l1.2-.4 1.8.3-.6.6-2.1.3zm1497.9 827.8 2.4-1.5 3.6 1.2-1.2 2.1-4.2.9zM898.6 14.5l1.5-1 2.3.8-.8 1.3-2.7.6zM4.9 112.9l1.6-1.1 2.4.9-.8 1.6-2.9.7zM1583 351.5l2.6-1.3 3.9 1-1.3 1.8-4.6.8zM12.1 81.3l.4-.9.6.7-.2 1.2-.8.5zm546.3-56.2 2.1-.6 3.2.5-1.1.8-3.7.4zm496.7 958.7 3.4-.6 5 .5-1.7.9-5.9.4zM9.2 638.3l3.1-.5 4.7.4-1.6.7-5.4.3zM1133.9 13.2l3.5-.8 5.2.6-1.7 1.1-6.1.5zM34.4 460.3l2.7-.9 4.1.7-1.4 1.3-4.8.6zm-30 481.4 2.3-1.1 3.4.8-1.1 1.5-4 .6zm29.9-484 3.6-.5 5.4.4-1.8.6-6.3.3zm419.9 519.6.6-.7.9.6-.3 1-1 .4zm665.5 10.3 1.2-1.1 1.8.9-.6 1.5-2.1.6zM1415.8 8.9l2.9-.9 4.3.7-1.4 1.3-5.1.5zM828 27.2l2.9-.5 4.3.4-1.4.7-5 .3zm602.3 967.6 3.7-.5 5.5.4-1.8.7-6.4.3zM168.8 981.5l3.4-.7 5.1.6-1.7 1-5.9.4zm1426.8-89.8.6-.5.9.4-.3.7-1 .3zM15.1 821.9l2.3-.6 3.4.5-1.1.8-4 .3zm-2.5-355.7 2.2-.8 3.3.6-1.1 1.1-3.8.5zM1224.9 987l.4-.6.6.5-.2.9-.7.4zM31.1 752.1l3.2-.3 4.7.2-1.6.4-5.5.2zM4 622.1l1.2-1.1 1.8.9-.6 1.5-2.1.7zM34.3 34.9l1.8-1.4 2.7 1.2-.9 2-3.2.9zm1537.3 66.6 3.6-1.4 5.4 1.1-1.8 2-6.3.9zm-3.6 161.2 3.9-1 5.8.8-1.9 1.4-6.7.6zM172.5 991.2l1.7-1.4 2.6 1.1-.9 1.9-3 .8zM3.7 503l3.2-1.4 4.8 1.1-1.6 1.9-5.6.8zM382.3 15.1l3.3-.8 5 .6-1.7 1.1-5.8.5zm1211.6 798.7 2.5-.9 3.7.7-1.2 1.3-4.4.5zM550.8 25.4l2.8-1.5 4.2 1.2-1.4 2.1-4.9.9zM1595 63l3.7-.8 5.6.7-1.9 1.2-6.5.5zm-23.5 758.2 2.2-.6 3.4.5-1.1.8-3.9.3zm-110-806 .8-1.3 1.2 1.1-.4 1.9-1.4.8zm114.9 473 .7-1.6 1.1 1.3-.4 2.3-1.3 1zm5.3 75.7 2.6-1.4 3.9 1.1-1.3 2-4.5.9zm-1.2-548.2 3.2-.9 4.8.7-1.6 1.3-5.6.5zm-172.2-.3 2-.7 3 .6-1 1-3.5.4zM29.1 91.3l2.7-.5 4 .4-1.3.7-4.7.3zm1540.5 564.1 3.8-.9 5.7.7-1.9 1.3-6.7.5zm-195.9 334.9 3.1-.5 4.7.4-1.6.7-5.5.3zm-1078.4-3.8 3.6-1.4 5.4 1.1-1.8 2-6.3.8zm1276.2-121.2.7-.8 1.1.6-.4 1.1-1.2.5zm23.8-634.3 2.7-.8 4 .6-1.3 1.1-4.7.5zM433 971.2l3.5-1.3 5.3 1-1.8 1.8-6.1.8zM4.9 623.9l.7-1.5 1 1.2-.3 2.1-1.2.9zm770-594.7.9-.8 1.3.7-.4 1.2-1.6.5zm801.9 842.3 2.7-.6 4.1.5-1.4.8-4.7.4zM1272.5 968l1.8-.6 2.8.5-.9.9-3.2.4zm177.3-948.2 1.5-.8 2.3.7-.8 1.1-2.7.5zM382 966.9l2.2-.5 3.2.4-1.1.7-3.8.3zM1328.6 11l3.6-1.4 5.4 1.1-1.8 2-6.3.9z" opacity=".44"/><path fill="none" stroke="#c3b18e" stroke-opacity=".38" stroke-width=".65" d="m163.6 971.5 6.6-.9M1465.5 9.3l15.8.1m-141.9 977.3 3.2-.2M178.1 22.6l12 .7m33.1-2.3 18.6-.9m1176.3 956.3 11 .7M710 973.6l7.5-.1m428-962.9 3.5-.4M754 991.3l22.2.3m1.2-965.7 19.7.7m-280.9-11 6.8.3m-14.8-2.5 12.5-.1m135.9 1.1 2.1.1m708.2 963.2 19.5-.9m-1159.1-6.2 5.1-1m-3.8 9.2 13.3 1M1552.1 7.9l17.1.2M578 27.1l17.3.7m56-2.6 3.2-.1m376.5 947 20.7.3m72.1-966.5 9.9-.7m-3.5 9.1 21.1-.1M602.1 25.9l4.6.5m852.3 955 8.4.3m-601.3-11.5 17.1-.4m-126 2.6 13.5-.4m-433.5 6.6 22.3.4M972.1 26.5l16.6-1m-322 959.3 12.4-.5M544.9 11.5l23.8-.8M390.8 970.6l11.7.4m3.8 14.6 18.5.5M1047 26.5l5.6.3M646.3 979.1l22-.8M826.6 31.7l16.4-.9m681.1 949.5 21.3-.6m-861 10.4 14.3 1m-201.5-4.6 5.2-.8m1034.2-9.5 2.2-.8m-161.1 3.5 4-.7M1243 31.2l14.6-.8M259 16.8l10.9.2m1140 959.1 5.5-.3M12.5 6.4l23.8.5M1536.9 14l4 .3m-927.8 963 21.3-.3m362.5 6.9 18.2-.5M433.4 17.5l17.2.1m-199 968.8 8.5-.5M31.5 20.4l9.4-.1m852.9 971.5 3.3-.9m64.3-975.2 13.1-.1m273.3 967.1 2 .5M249.3 6.7l14.2-.6m1008.6 19.3 23.6.9m7.2 948.4 7.3-.5M1473.3 7.1l21 .5M663.5 29.1l23.3.1M379.1 13.1l10.9.4m469.2 16.3 7.7-.5m240.8-2.5 12.7-.5m63.2-3.7 22.2.3m227.3-6.3 2.8-.8M199.7 981.9l17.6-.2M764.5 30.8l19.9.1m674.2 961.8 23-.2m-542.4-2.9 12.2.7m72.4-5.5 13.3.3M577 26l9.7-.5m219 949.6 23.2.5m-178.8 16.7 17.1.6M337.7 8.6l4.1-.3m49 20.7 3.2-.4m-28.8-18 5.4-.9m627.1 971.2 14 .9M568.9 9.5l21.3.3m99.5 983.1 22.7.5m695.3-970.8 5.1 1m7.1-9.9 20.3.1m-1293.8 15 2.7.8m930.7-6.2 20-.5M516.9 982.5h17.3m872.8 4.3 21.9-.9m39.8-961.2 3.4-.2m83.5-16.6 15.3-.9M374.8 981.2l20.6-1m899.4-2.7 5.7.8M1586.7 5.6h5.4M974.5 26.9l5.9-.5M873 5.9l11 .9M626.2 983.9h17.5M124.6 13.6l10.9-.2m228.6 978.5 18.3-.6m893.4-13.4 7-.9M310.2 13.5l22.3-.3m-166.1 9.6 9.1.6m1311.1 962.2 4.2-.1M1359.5 24.7l13.7-.7M799.3 980.7l2.9 1M630 28l7.6-.9m449.5 953.7 10.8.4m-44-950.7 9.3.1M113.2 993l17 .4M1456 10.2l15.8-.7M849 22.6l4.4.2M109.5 976l18.3.8m605.3 2.4 2.8.8M136.1 16.7l4.7-1m541.4 963.4 12 .9m623.1 5.8 13.9-.8"/><path fill="none" stroke="#100c09" stroke-opacity=".7" stroke-width=".65" d="m1190.2 24.5 7.2-.3M104.3 989.5l7-.7M969.6 30.1l12 .3m-577.7-.7 13.3-.1m958.5-1.7 23.5-.5M718 22.7l17.3-1m660.4 966.1h9.1m-875.2 0 8.6.8m857.1 3.5h13.4M1353.6 12l23.7-.9M384 10.6l21.6.5M111.7 977.5l19-.8m1263.7 5.2 14-.3m-68.7 10.4 15.4-.6M1165.8 13l7.9.8M700.6 29.5l6.8.8M578.5 10.4l15.5 1M256 8.5l22.7.4m230 965.1 23.7-.7m-101.1 12.4 20.9.8m1.7-963.6 3.7-.2m-137.7 949 3.5-.7m202.4 9 7.2.6m844.2 2.3 11.1-.1M113.7 6.8l19.4-1m55.4 985.8 14.1-.9m991.8-964.1 2.4.8m-866.3-8 19.9-.6M594.3 22l22.1-.9m-318.3-2.3 8.1-.5m100.7 961.3 8.4-.3M133.4 26.2l7-.2m386.4 962.6 16.3.6m-274-965 19.3-.7m1290.7-6 11.3.3M687.3 973l23.7-.1M909.3 25l19.3-.3m370.7 948 16.8.8M441.9 30.9l14.7.9M1161.5 984l6.3-.8m-743.9-11.1 8 .7m839.9-944.4 2.5.6m166.5 960.7 19.3.6M530.7 14.5l22.4-.9m971.4 967.5 8.4.9m-432.2 4.1 23.2-.7M967.8 28.9l21.1-.6m573.4 3.1h10.9m-53.7-24.5 12.9-.8m-289.7 1.8 18.5.2m190.1 978.8 11.6.5M1381.2 9.8l15.4-.9M875.2 5.2l11.1.9m410.1 980.1 2.2.6m-569.4-5.5 16.7-.2M136 12l3.8-.3m424.5 15.4 6.3-.8M15.7 979.1l3.5.6M728.9 17.4l14.6.9M491.4 986.9l23.4-.1M684.7 30.7l4.6-.3m774.2 961.4 12.4-.6m5.3-3.6 21.5-1m-29.9-972.8 14.3-.7M173.7 970.8h16.7m1237.3 21.5 3.3.2m-139.7-14.1 22.9.4M186.7 990.6l18.9.4m836.9-970.8 23.7.5m-438.5-3.4 9.2.2m-344.1-2 3.1.5m647.5-6 13 .7M155.8 7.4l3.3.9m275.3 971.6 21.3.8M209.5 29.8l5.6.4m1090.7-13.3 17.4-.7m259.1-7.7 22.8-.3m-376.2 968.5 5.1-.8m315.9 7.8 4.3.9M189.8 974.1l12.9.6m1136.8 3.4 20.9-.2m165.7 12.8 18.4.6m-84.4-4.5 11.8.2m69.5 1.4 22.1.9m-803.4-2.2 2.6-.5m424-4.5 6.3.7M658.4 988l18.9.7m-361.7-1.8 22-.2m764.9-958.4 12.2-.5M1243.3 11h17.7m-182 966.6 3.5-.7m-801.5.7 19-.1m932.5.7 7-.4m26.6-3.2 11.1-.4M247.3 992.6l11.7.8m1318-7.3 4.2-.1m-181.4-8.9 18.9.3M392 11.8l6.7.8M14.2 988.1l8.3-.2M347 974.2l23-.7M534.7 9.6l10.4.5m-1.9 969.1 3.6.6M1272 8.4l17.3.5m283.9 1.9 21.5.3M491.2 976.7l21.7-1M1159.6 10l12.8.6m306.7 962.5 20.3-.2M238.1 23.8l21-.5m399.5 953.8 5.3.5m106.8 1 10.5-.1M1017 8.5l8.8.5m511.5 964.9 10.7-.3M370.1 30l21.6-.9m-61.1 1.8 19.1-.3M805.4 984l2.3-.8m61.5-3.8 9.5.7m452.1-952.7 2.7.5M443.6 986.4l20.6-.8m735.5 2.3 20.9.8m305.7-977.9 5.8.9m-440.8 13.9 14.3-1m-103.6-.2 9.3-.2m385.3-.5 9.3.1m-193.4-3.6 17.6.1M991.2 6.1l11.9.3m-38.3 977.1h10.6M572.8 980l22.1-.9M512.5 13.6l15.5.7m671 978.5 9.4-.9m-9.4-14.2 7.5-.4M780.8 31.2l17.1.2m-360.1 944 4.4.6M670.7 8.3l21.9.1m218.2 963.1 11 1M828.1 19.9l18.1-.7m527.5 972 18.2-.8m-336.7 2.3 6.1-.4M990.7 5.1l4.9-.6M1163.9 989l4.6.4m-1015 3.4 5.5.1m1010.2-21.4 6.4.9m-378.4 8.5 13.6-.7M199 970.5l14.6-.3M1583.8 21.7l7.1-.4M1067.7 8.7l16.3 1M905.6 28.9l13-.8m364.2 1.1 5.5 1M346.8 972.9l22.6.6m1165-943.4 17.1.6M744.4 989.1h7.1M364 976.5l14.1.6M3.5 16.6l20.6-.3m1194 954.4 20.6.8m8.7-944.1 4.5-.8m306.6 952.6 17.4-1m-1351.4 1.6 7.4-.4M439.1 15.8l16.2-.3m188 962.5 7.9-.7m398.8 0 2.7-.5M571.1 21.5l3.5.3m-284.3 7.4 15.7-.9M710.5 8.6l2.1.3M149.1 975.3l11.4-.3m593.4 7.8 7.1-.2m-301.2 2.9 16-.8m744.8-953.5 21.9.7m292.3-16.4 15.9.3M92.8 971.1l4.8.9M1198.1 16.1l18.3-.7m-520.8.3 10.8-.9"/><g fill="#0e0c0b" stroke="#735035"><rect width="45" height="15" x="674" y="11" rx="2"/><rect width="184" height="18" x="840" y="972" rx="2"/></g><g fill="#c8b696" font-family="monospace" font-size="9" letter-spacing="1.3" opacity=".72"><text x="441" y="24">MR / DISPLAY ASSEMBLY</text><text x="679" y="22" font-size="7" letter-spacing=".8">R-013</text><text x="852" y="984" font-size="8">FIELD SERVICE / 03</text><text x="1178" y="23" font-size="8">CAUTION // HV</text></g><rect width="34" height="11" x="1042" y="975" fill="#120e09" stroke="#886449" rx="2"/><path fill="#e0863f" d="M1047 978h7v4h-7z"/><path fill="#59432b" d="M1059 978h4v4h-4zm8 0h4v4h-4z"/><path stroke="#f4d29b" d="M1048 978h5"/><g opacity=".8"><use x="136" y="20" href="#c"/><use x="1462" y="20" href="#c"/><use x="229" y="980" href="#c"/><use x="1440" y="980" href="#c"/><use x="20" y="372" href="#c"/><use x="20" y="625" href="#c"/><use x="1580" y="380" href="#c"/><use x="1580" y="618" href="#c"/></g><path fill="transparent" d="M0 0h1600v1000H0z" filter="url(#k)" opacity=".32"/></g></svg>